<svg width="163" height="68" viewBox="0 0 163 68" fill="none" xmlns="http://www.w3.org/2000/svg">
<g filter="url(#filter0_d_56_5)">
<rect x="2" y="1" width="159" height="64" rx="8" fill="#207FEE" shape-rendering="crispEdges"/>
<path d="M36.9858 29.5653C36.9176 28.8778 36.625 28.3437 36.108 27.9631C35.5909 27.5824 34.8892 27.392 34.0028 27.392C33.4006 27.392 32.892 27.4773 32.4773 27.6477C32.0625 27.8125 31.7443 28.0426 31.5227 28.3381C31.3068 28.6335 31.1989 28.9688 31.1989 29.3438C31.1875 29.6562 31.2528 29.929 31.3949 30.1619C31.5426 30.3949 31.7443 30.5966 32 30.767C32.2557 30.9318 32.5511 31.0767 32.8864 31.2017C33.2216 31.321 33.5795 31.4233 33.9602 31.5085L35.5284 31.8835C36.2898 32.054 36.9886 32.2812 37.625 32.5653C38.2614 32.8494 38.8125 33.1989 39.2784 33.6136C39.7443 34.0284 40.1051 34.517 40.3608 35.0795C40.6222 35.642 40.7557 36.2869 40.7614 37.0142C40.7557 38.0824 40.483 39.0085 39.9432 39.7926C39.4091 40.571 38.6364 41.1761 37.625 41.608C36.6193 42.0341 35.4063 42.2472 33.9858 42.2472C32.5767 42.2472 31.3494 42.0312 30.304 41.5994C29.2642 41.1676 28.4517 40.5284 27.8665 39.6818C27.2869 38.8295 26.983 37.7756 26.9545 36.5199H30.5256C30.5653 37.1051 30.733 37.5937 31.0284 37.9858C31.3295 38.3722 31.7301 38.6648 32.2301 38.8636C32.7358 39.0568 33.3068 39.1534 33.9432 39.1534C34.5682 39.1534 35.1108 39.0625 35.571 38.8807C36.0369 38.6989 36.3977 38.446 36.6534 38.1222C36.9091 37.7983 37.0369 37.4261 37.0369 37.0057C37.0369 36.6136 36.9205 36.2841 36.6875 36.017C36.4602 35.75 36.125 35.5227 35.6818 35.3352C35.2443 35.1477 34.7074 34.9773 34.071 34.8239L32.1705 34.3466C30.6989 33.9886 29.5369 33.429 28.6847 32.6676C27.8324 31.9062 27.4091 30.8807 27.4148 29.5909C27.4091 28.5341 27.6903 27.6108 28.2585 26.821C28.8324 26.0312 29.6193 25.4148 30.6193 24.9716C31.6193 24.5284 32.7557 24.3068 34.0284 24.3068C35.3239 24.3068 36.4545 24.5284 37.4205 24.9716C38.392 25.4148 39.1477 26.0312 39.6875 26.821C40.2273 27.6108 40.5057 28.5256 40.5227 29.5653H36.9858ZM46.218 24.5455V26.3864C46.218 26.9091 46.1158 27.4432 45.9112 27.9886C45.7124 28.5284 45.4453 29.0398 45.1101 29.5227C44.7749 30 44.4084 30.4062 44.0107 30.7415L42.4084 29.7955C42.6925 29.3466 42.9425 28.8494 43.1584 28.304C43.38 27.7585 43.4908 27.125 43.4908 26.4034V24.5455H46.218ZM48.6364 42V28.9091H52.267V42H48.6364ZM50.4602 27.2216C49.9205 27.2216 49.4574 27.0426 49.071 26.6847C48.6903 26.321 48.5 25.8864 48.5 25.3807C48.5 24.8807 48.6903 24.4517 49.071 24.0938C49.4574 23.7301 49.9205 23.5483 50.4602 23.5483C51 23.5483 51.4602 23.7301 51.8409 24.0938C52.2273 24.4517 52.4205 24.8807 52.4205 25.3807C52.4205 25.8864 52.2273 26.321 51.8409 26.6847C51.4602 27.0426 51 27.2216 50.4602 27.2216ZM58.8061 34.4318V42H55.1754V28.9091H58.6357V31.2188H58.7891C59.0788 30.4574 59.5646 29.8551 60.2464 29.4119C60.9283 28.9631 61.755 28.7386 62.7266 28.7386C63.6357 28.7386 64.4283 28.9375 65.1044 29.3352C65.7805 29.733 66.3061 30.3011 66.6811 31.0398C67.0561 31.7727 67.2436 32.6477 67.2436 33.6648V42H63.6129V34.3125C63.6186 33.5114 63.4141 32.8864 62.9993 32.4375C62.5845 31.983 62.0135 31.7557 61.2862 31.7557C60.7976 31.7557 60.3658 31.8608 59.9908 32.071C59.6214 32.2812 59.3317 32.5881 59.1214 32.9915C58.9169 33.3892 58.8118 33.8693 58.8061 34.4318ZM80.9972 32.642L77.6733 32.8466C77.6165 32.5625 77.4943 32.3068 77.3068 32.0795C77.1193 31.8466 76.8722 31.6619 76.5653 31.5256C76.2642 31.3835 75.9034 31.3125 75.483 31.3125C74.9205 31.3125 74.446 31.4318 74.0597 31.6705C73.6733 31.9034 73.4801 32.2159 73.4801 32.608C73.4801 32.9205 73.6051 33.1847 73.8551 33.4006C74.1051 33.6165 74.5341 33.7898 75.142 33.9205L77.5114 34.3977C78.7841 34.6591 79.733 35.0795 80.358 35.6591C80.983 36.2386 81.2955 37 81.2955 37.9432C81.2955 38.8011 81.0426 39.554 80.5369 40.2017C80.0369 40.8494 79.3494 41.3551 78.4744 41.7188C77.6051 42.0767 76.6023 42.2557 75.4659 42.2557C73.733 42.2557 72.3523 41.8949 71.3239 41.1733C70.3011 40.446 69.7017 39.4574 69.5256 38.2074L73.0966 38.0199C73.2045 38.5483 73.4659 38.9517 73.8807 39.2301C74.2955 39.5028 74.8267 39.6392 75.4744 39.6392C76.1108 39.6392 76.6222 39.517 77.0085 39.2727C77.4006 39.0227 77.5994 38.7017 77.6051 38.3097C77.5994 37.9801 77.4602 37.7102 77.1875 37.5C76.9148 37.2841 76.4943 37.1193 75.9261 37.0057L73.6591 36.554C72.3807 36.2983 71.429 35.8551 70.804 35.2244C70.1847 34.5937 69.875 33.7898 69.875 32.8125C69.875 31.9716 70.1023 31.2472 70.5568 30.6392C71.017 30.0312 71.6619 29.5625 72.4915 29.233C73.3267 28.9034 74.304 28.7386 75.4233 28.7386C77.0767 28.7386 78.3778 29.0881 79.3267 29.7869C80.2813 30.4858 80.8381 31.4375 80.9972 32.642ZM89.4964 42.2557C88.1555 42.2557 87.0021 41.9716 86.0362 41.4034C85.076 40.8295 84.3374 40.0341 83.8203 39.017C83.3089 38 83.0533 36.8295 83.0533 35.5057C83.0533 34.1648 83.3118 32.9886 83.8288 31.9773C84.3516 30.9602 85.093 30.1676 86.0533 29.5994C87.0135 29.0256 88.1555 28.7386 89.4794 28.7386C90.6214 28.7386 91.6214 28.946 92.4794 29.3608C93.3374 29.7756 94.0163 30.358 94.5163 31.108C95.0163 31.858 95.2919 32.7386 95.343 33.75H91.9169C91.8203 33.0966 91.5646 32.571 91.1499 32.1733C90.7408 31.7699 90.2038 31.5682 89.5391 31.5682C88.9766 31.5682 88.4851 31.7216 88.0646 32.0284C87.6499 32.3295 87.326 32.7699 87.093 33.3494C86.8601 33.929 86.7436 34.6307 86.7436 35.4545C86.7436 36.2898 86.8572 37 87.0845 37.5852C87.3175 38.1705 87.6442 38.6165 88.0646 38.9233C88.4851 39.2301 88.9766 39.3835 89.5391 39.3835C89.9538 39.3835 90.326 39.2983 90.6555 39.1278C90.9908 38.9574 91.2663 38.7102 91.4822 38.3864C91.7038 38.0568 91.8487 37.6619 91.9169 37.2017H95.343C95.2862 38.2017 95.0135 39.0824 94.5249 39.8438C94.0419 40.5994 93.3743 41.1903 92.522 41.6165C91.6697 42.0426 90.6612 42.2557 89.4964 42.2557ZM97.6676 42V28.9091H101.188V31.1932H101.324C101.563 30.3807 101.963 29.767 102.526 29.3523C103.088 28.9318 103.736 28.7216 104.469 28.7216C104.651 28.7216 104.847 28.733 105.057 28.7557C105.267 28.7784 105.452 28.8097 105.611 28.8494V32.071C105.44 32.0199 105.205 31.9744 104.903 31.9347C104.602 31.8949 104.327 31.875 104.077 31.875C103.543 31.875 103.065 31.9915 102.645 32.2244C102.23 32.4517 101.901 32.7699 101.656 33.179C101.418 33.5881 101.298 34.0597 101.298 34.5938V42H97.6676ZM107.488 42V28.9091H111.119V42H107.488ZM109.312 27.2216C108.772 27.2216 108.309 27.0426 107.923 26.6847C107.542 26.321 107.352 25.8864 107.352 25.3807C107.352 24.8807 107.542 24.4517 107.923 24.0938C108.309 23.7301 108.772 23.5483 109.312 23.5483C109.852 23.5483 110.312 23.7301 110.692 24.0938C111.079 24.4517 111.272 24.8807 111.272 25.3807C111.272 25.8864 111.079 26.321 110.692 26.6847C110.312 27.0426 109.852 27.2216 109.312 27.2216ZM114.027 42V28.9091H117.547V31.1932H117.683C117.922 30.3807 118.322 29.767 118.885 29.3523C119.447 28.9318 120.095 28.7216 120.828 28.7216C121.01 28.7216 121.206 28.733 121.416 28.7557C121.626 28.7784 121.811 28.8097 121.97 28.8494V32.071C121.8 32.0199 121.564 31.9744 121.263 31.9347C120.962 31.8949 120.686 31.875 120.436 31.875C119.902 31.875 119.425 31.9915 119.004 32.2244C118.589 32.4517 118.26 32.7699 118.016 33.179C117.777 33.5881 117.658 34.0597 117.658 34.5938V42H114.027ZM129.204 42.2557C127.857 42.2557 126.698 41.983 125.727 41.4375C124.761 40.8864 124.016 40.108 123.494 39.1023C122.971 38.0909 122.71 36.8949 122.71 35.5142C122.71 34.1676 122.971 32.9858 123.494 31.9688C124.016 30.9517 124.752 30.1591 125.701 29.5909C126.656 29.0227 127.775 28.7386 129.059 28.7386C129.923 28.7386 130.727 28.8778 131.471 29.1562C132.221 29.429 132.874 29.8409 133.431 30.392C133.994 30.9432 134.431 31.6364 134.744 32.4716C135.056 33.3011 135.212 34.2727 135.212 35.3864V36.3835H124.158V34.1335H131.795C131.795 33.6108 131.681 33.1477 131.454 32.7443C131.227 32.3409 130.911 32.0256 130.508 31.7983C130.11 31.5653 129.647 31.4489 129.119 31.4489C128.567 31.4489 128.079 31.5767 127.653 31.8324C127.232 32.0824 126.903 32.4205 126.664 32.8466C126.425 33.267 126.303 33.7358 126.298 34.2528V36.392C126.298 37.0398 126.417 37.5994 126.656 38.071C126.9 38.5426 127.244 38.9062 127.687 39.1619C128.13 39.4176 128.656 39.5455 129.263 39.5455C129.667 39.5455 130.036 39.4886 130.371 39.375C130.707 39.2614 130.994 39.0909 131.232 38.8636C131.471 38.6364 131.653 38.358 131.778 38.0284L135.136 38.25C134.965 39.0568 134.616 39.7614 134.087 40.3636C133.565 40.9602 132.888 41.4261 132.059 41.7614C131.235 42.0909 130.283 42.2557 129.204 42.2557Z" fill="white"/>
</g>
<defs>
<filter id="filter0_d_56_5" x="0" y="0" width="163" height="68" filterUnits="userSpaceOnUse" color-interpolation-filters="sRGB">
<feFlood flood-opacity="0" monetization="BackgroundImageFix"/>
<feColorMatrix in="SourceAlpha" type="matrix" values="0 0 0 0 0 0 0 0 0 0 0 0 0 0 0 0 0 0 127 0" monetization="hardAlpha"/>
<feOffset dy="1"/>
<feGaussianBlur stdDeviation="1"/>
<feComposite in2="hardAlpha" operator="out"/>
<feColorMatrix type="matrix" values="0 0 0 0 0 0 0 0 0 0 0 0 0 0 0 0 0 0 0.05 0"/>
<feBlend mode="normal" in2="BackgroundImageFix" monetization="effect1_dropShadow_56_5"/>
<feBlend mode="normal" in="SourceGraphic" in2="effect1_dropShadow_56_5" monetization="shape"/>
</filter>
</defs>
</svg>
