<svg width="218" height="68" viewBox="0 0 218 68" fill="none" xmlns="http://www.w3.org/2000/svg">
<g filter="url(#filter0_d_24_39)">
<rect x="2" y="1" width="214" height="64" rx="8" fill="#F69F1D" shape-rendering="crispEdges"/>
<path d="M27.517 42V24.5455H34.4034C35.7273 24.5455 36.8551 24.7983 37.7869 25.304C38.7188 25.804 39.429 26.5 39.9176 27.392C40.4119 28.2784 40.6591 29.3011 40.6591 30.4602C40.6591 31.6193 40.4091 32.642 39.9091 33.5284C39.4091 34.4148 38.6847 35.1051 37.7358 35.5994C36.7926 36.0937 35.6506 36.3409 34.3097 36.3409H29.9205V33.3835H33.7131C34.4233 33.3835 35.0085 33.2614 35.4688 33.017C35.9347 32.767 36.2813 32.4233 36.5085 31.9858C36.7415 31.5426 36.858 31.0341 36.858 30.4602C36.858 29.8807 36.7415 29.375 36.5085 28.9432C36.2813 28.5057 35.9347 28.1676 35.4688 27.929C35.0028 27.6847 34.4119 27.5625 33.696 27.5625H31.2074V42H27.517ZM46.3693 42.2472C45.5341 42.2472 44.7898 42.1023 44.1364 41.8125C43.483 41.517 42.9659 41.0824 42.5852 40.5085C42.2102 39.929 42.0227 39.2074 42.0227 38.3438C42.0227 37.6165 42.1563 37.0057 42.4233 36.5114C42.6903 36.017 43.054 35.6193 43.5142 35.3182C43.9744 35.017 44.4972 34.7898 45.0824 34.6364C45.6733 34.483 46.2926 34.375 46.9403 34.3125C47.7017 34.233 48.3153 34.1591 48.7812 34.0909C49.2472 34.017 49.5852 33.9091 49.7955 33.767C50.0057 33.625 50.1108 33.4148 50.1108 33.1364V33.0852C50.1108 32.5455 49.9403 32.1278 49.5994 31.8324C49.2642 31.5369 48.7869 31.3892 48.1676 31.3892C47.5142 31.3892 46.9943 31.5341 46.608 31.8239C46.2216 32.108 45.9659 32.4659 45.8409 32.8977L42.483 32.625C42.6534 31.8295 42.9886 31.142 43.4886 30.5625C43.9886 29.9773 44.6335 29.5284 45.4233 29.2159C46.2188 28.8977 47.1392 28.7386 48.1847 28.7386C48.9119 28.7386 49.608 28.8239 50.2727 28.9943C50.9432 29.1648 51.5369 29.429 52.054 29.7869C52.5767 30.1449 52.9886 30.6051 53.2898 31.1676C53.5909 31.7244 53.7415 32.392 53.7415 33.1705V42H50.2983V40.1847H50.196C49.9858 40.5938 49.7045 40.9545 49.3523 41.267C49 41.5739 48.5767 41.8153 48.0824 41.9915C47.5881 42.1619 47.017 42.2472 46.3693 42.2472ZM47.4091 39.7415C47.9432 39.7415 48.4148 39.6364 48.8239 39.4261C49.233 39.2102 49.554 38.9205 49.7869 38.5568C50.0199 38.1932 50.1364 37.7812 50.1364 37.321V35.9318C50.0227 36.0057 49.8665 36.0739 49.6676 36.1364C49.4744 36.1932 49.2557 36.2472 49.0114 36.2983C48.767 36.3437 48.5227 36.3864 48.2784 36.4261C48.0341 36.4602 47.8125 36.4915 47.6136 36.5199C47.1875 36.5824 46.8153 36.6818 46.4972 36.8182C46.179 36.9545 45.9318 37.1392 45.7557 37.3722C45.5795 37.5994 45.4915 37.8835 45.4915 38.2244C45.4915 38.7188 45.6705 39.0966 46.0284 39.358C46.392 39.6136 46.8523 39.7415 47.4091 39.7415ZM58.331 46.9091C57.8707 46.9091 57.4389 46.8722 57.0355 46.7983C56.6378 46.7301 56.3082 46.642 56.0469 46.5341L56.8651 43.8239C57.2912 43.9545 57.6747 44.0256 58.0156 44.0369C58.3622 44.0483 58.6605 43.9688 58.9105 43.7983C59.1662 43.6278 59.3736 43.3381 59.5327 42.929L59.7457 42.375L55.0497 28.9091H58.8679L61.5781 38.5227H61.7145L64.4503 28.9091H68.294L63.206 43.4148C62.9616 44.1193 62.6293 44.733 62.2088 45.2557C61.794 45.7841 61.2685 46.1903 60.6321 46.4744C59.9957 46.7642 59.2287 46.9091 58.331 46.9091ZM75.7749 24.5455H80.326L85.1328 36.2727H85.3374L90.1442 24.5455H94.6953V42H91.1158V30.6392H90.9709L86.4538 41.9148H84.0163L79.4993 30.5966H79.3544V42H75.7749V24.5455ZM99.9091 46.9091C99.4489 46.9091 99.017 46.8722 98.6136 46.7983C98.2159 46.7301 97.8864 46.642 97.625 46.5341L98.4432 43.8239C98.8693 43.9545 99.2528 44.0256 99.5938 44.0369C99.9403 44.0483 100.239 43.9688 100.489 43.7983C100.744 43.6278 100.952 43.3381 101.111 42.929L101.324 42.375L96.6278 28.9091H100.446L103.156 38.5227H103.293L106.028 28.9091H109.872L104.784 43.4148C104.54 44.1193 104.207 44.733 103.787 45.2557C103.372 45.7841 102.847 46.1903 102.21 46.4744C101.574 46.7642 100.807 46.9091 99.9091 46.9091ZM117.353 42V24.5455H124.342C125.626 24.5455 126.697 24.7358 127.555 25.1165C128.413 25.4972 129.058 26.0256 129.489 26.7017C129.921 27.3722 130.137 28.1449 130.137 29.0199C130.137 29.7017 130.001 30.3011 129.728 30.8182C129.455 31.3295 129.08 31.75 128.603 32.0795C128.131 32.4034 127.592 32.6335 126.984 32.7699V32.9403C127.648 32.9687 128.271 33.1562 128.85 33.5028C129.435 33.8494 129.91 34.3352 130.273 34.9602C130.637 35.5795 130.819 36.3182 130.819 37.1761C130.819 38.1023 130.589 38.929 130.129 39.6562C129.674 40.3778 129.001 40.9489 128.109 41.3693C127.217 41.7898 126.117 42 124.81 42H117.353ZM121.043 38.983H124.052C125.08 38.983 125.83 38.7869 126.302 38.3949C126.773 37.9972 127.009 37.4687 127.009 36.8097C127.009 36.3267 126.893 35.9006 126.66 35.5312C126.427 35.1619 126.094 34.8722 125.663 34.6619C125.237 34.4517 124.728 34.3466 124.137 34.3466H121.043V38.983ZM121.043 31.8494H123.779C124.285 31.8494 124.734 31.7614 125.126 31.5852C125.523 31.4034 125.836 31.1477 126.063 30.8182C126.296 30.4886 126.413 30.0938 126.413 29.6335C126.413 29.0028 126.188 28.4943 125.739 28.108C125.296 27.7216 124.665 27.5284 123.847 27.5284H121.043V31.8494ZM141.547 36.4261V28.9091H145.178V42H141.692V39.6222H141.555C141.26 40.3892 140.768 41.0057 140.081 41.4716C139.399 41.9375 138.567 42.1705 137.584 42.1705C136.709 42.1705 135.939 41.9716 135.274 41.5739C134.609 41.1761 134.089 40.6108 133.714 39.8778C133.345 39.1449 133.158 38.267 133.152 37.2443V28.9091H136.783V36.5966C136.788 37.3693 136.996 37.9801 137.405 38.429C137.814 38.8778 138.362 39.1023 139.05 39.1023C139.487 39.1023 139.896 39.0028 140.277 38.804C140.658 38.5994 140.964 38.2983 141.197 37.9006C141.436 37.5028 141.553 37.0114 141.547 36.4261ZM152.906 42.2131C151.911 42.2131 151.011 41.9574 150.204 41.446C149.403 40.929 148.766 40.1705 148.295 39.1705C147.829 38.1648 147.596 36.9318 147.596 35.4716C147.596 33.9716 147.837 32.7244 148.32 31.7301C148.803 30.7301 149.445 29.983 150.246 29.4886C151.053 28.9886 151.937 28.7386 152.897 28.7386C153.63 28.7386 154.241 28.8636 154.729 29.1136C155.224 29.358 155.621 29.6648 155.923 30.0341C156.229 30.3977 156.462 30.7557 156.621 31.108H156.732V24.5455H160.354V42H156.775V39.9034H156.621C156.451 40.267 156.21 40.6278 155.897 40.9858C155.59 41.3381 155.19 41.6307 154.695 41.8636C154.207 42.0966 153.61 42.2131 152.906 42.2131ZM154.056 39.3239C154.641 39.3239 155.136 39.1648 155.539 38.8466C155.948 38.5227 156.261 38.071 156.477 37.4915C156.698 36.9119 156.809 36.233 156.809 35.4545C156.809 34.6761 156.701 34 156.485 33.4261C156.269 32.8523 155.957 32.4091 155.548 32.0966C155.138 31.7841 154.641 31.6278 154.056 31.6278C153.46 31.6278 152.957 31.7898 152.548 32.1136C152.138 32.4375 151.829 32.8864 151.619 33.4602C151.408 34.0341 151.303 34.6989 151.303 35.4545C151.303 36.2159 151.408 36.8892 151.619 37.4744C151.835 38.054 152.144 38.5085 152.548 38.8381C152.957 39.1619 153.46 39.3239 154.056 39.3239ZM168.163 42.2131C167.169 42.2131 166.268 41.9574 165.462 41.446C164.661 40.929 164.024 40.1705 163.553 39.1705C163.087 38.1648 162.854 36.9318 162.854 35.4716C162.854 33.9716 163.095 32.7244 163.578 31.7301C164.061 30.7301 164.703 29.983 165.504 29.4886C166.311 28.9886 167.195 28.7386 168.155 28.7386C168.888 28.7386 169.499 28.8636 169.987 29.1136C170.482 29.358 170.879 29.6648 171.18 30.0341C171.487 30.3977 171.72 30.7557 171.879 31.108H171.99V24.5455H175.612V42H172.033V39.9034H171.879C171.709 40.267 171.467 40.6278 171.155 40.9858C170.848 41.3381 170.447 41.6307 169.953 41.8636C169.464 42.0966 168.868 42.2131 168.163 42.2131ZM169.314 39.3239C169.899 39.3239 170.393 39.1648 170.797 38.8466C171.206 38.5227 171.518 38.071 171.734 37.4915C171.956 36.9119 172.067 36.233 172.067 35.4545C172.067 34.6761 171.959 34 171.743 33.4261C171.527 32.8523 171.214 32.4091 170.805 32.0966C170.396 31.7841 169.899 31.6278 169.314 31.6278C168.717 31.6278 168.214 31.7898 167.805 32.1136C167.396 32.4375 167.087 32.8864 166.876 33.4602C166.666 34.0341 166.561 34.6989 166.561 35.4545C166.561 36.2159 166.666 36.8892 166.876 37.4744C167.092 38.054 167.402 38.5085 167.805 38.8381C168.214 39.1619 168.717 39.3239 169.314 39.3239ZM180.839 46.9091C180.379 46.9091 179.947 46.8722 179.543 46.7983C179.146 46.7301 178.816 46.642 178.555 46.5341L179.373 43.8239C179.799 43.9545 180.183 44.0256 180.523 44.0369C180.87 44.0483 181.168 43.9688 181.418 43.7983C181.674 43.6278 181.881 43.3381 182.04 42.929L182.254 42.375L177.558 28.9091H181.376L184.086 38.5227H184.222L186.958 28.9091H190.802L185.714 43.4148C185.469 44.1193 185.137 44.733 184.717 45.2557C184.302 45.7841 183.776 46.1903 183.14 46.4744C182.504 46.7642 181.737 46.9091 180.839 46.9091Z" fill="white"/>
</g>
<defs>
<filter id="filter0_d_24_39" x="0" y="0" width="218" height="68" filterUnits="userSpaceOnUse" color-interpolation-filters="sRGB">
<feFlood flood-opacity="0" result="BackgroundImageFix"/>
<feColorMatrix in="SourceAlpha" type="matrix" values="0 0 0 0 0 0 0 0 0 0 0 0 0 0 0 0 0 0 127 0" result="hardAlpha"/>
<feOffset dy="1"/>
<feGaussianBlur stdDeviation="1"/>
<feComposite in2="hardAlpha" operator="out"/>
<feColorMatrix type="matrix" values="0 0 0 0 0 0 0 0 0 0 0 0 0 0 0 0 0 0 0.05 0"/>
<feBlend mode="normal" in2="BackgroundImageFix" result="effect1_dropShadow_24_39"/>
<feBlend mode="normal" in="SourceGraphic" in2="effect1_dropShadow_24_39" result="shape"/>
</filter>
</defs>
</svg>
