<svg width="209" height="68" viewBox="0 0 209 68" fill="none" xmlns="http://www.w3.org/2000/svg">
<g filter="url(#filter0_d_24_6)">
<rect x="2" y="1" width="205" height="64" rx="8" fill="#207FEE" shape-rendering="crispEdges"/>
<path d="M36.9858 29.5653C36.9176 28.8778 36.625 28.3437 36.108 27.9631C35.5909 27.5824 34.8892 27.392 34.0028 27.392C33.4006 27.392 32.892 27.4773 32.4773 27.6477C32.0625 27.8125 31.7443 28.0426 31.5227 28.3381C31.3068 28.6335 31.1989 28.9688 31.1989 29.3438C31.1875 29.6562 31.2528 29.929 31.3949 30.1619C31.5426 30.3949 31.7443 30.5966 32 30.767C32.2557 30.9318 32.5511 31.0767 32.8864 31.2017C33.2216 31.321 33.5795 31.4233 33.9602 31.5085L35.5284 31.8835C36.2898 32.054 36.9886 32.2812 37.625 32.5653C38.2614 32.8494 38.8125 33.1989 39.2784 33.6136C39.7443 34.0284 40.1051 34.517 40.3608 35.0795C40.6222 35.642 40.7557 36.2869 40.7614 37.0142C40.7557 38.0824 40.483 39.0085 39.9432 39.7926C39.4091 40.571 38.6364 41.1761 37.625 41.608C36.6193 42.0341 35.4063 42.2472 33.9858 42.2472C32.5767 42.2472 31.3494 42.0312 30.304 41.5994C29.2642 41.1676 28.4517 40.5284 27.8665 39.6818C27.2869 38.8295 26.983 37.7756 26.9545 36.5199H30.5256C30.5653 37.1051 30.733 37.5937 31.0284 37.9858C31.3295 38.3722 31.7301 38.6648 32.2301 38.8636C32.7358 39.0568 33.3068 39.1534 33.9432 39.1534C34.5682 39.1534 35.1108 39.0625 35.571 38.8807C36.0369 38.6989 36.3977 38.446 36.6534 38.1222C36.9091 37.7983 37.0369 37.4261 37.0369 37.0057C37.0369 36.6136 36.9205 36.2841 36.6875 36.017C36.4602 35.75 36.125 35.5227 35.6818 35.3352C35.2443 35.1477 34.7074 34.9773 34.071 34.8239L32.1705 34.3466C30.6989 33.9886 29.5369 33.429 28.6847 32.6676C27.8324 31.9062 27.4091 30.8807 27.4148 29.5909C27.4091 28.5341 27.6903 27.6108 28.2585 26.821C28.8324 26.0312 29.6193 25.4148 30.6193 24.9716C31.6193 24.5284 32.7557 24.3068 34.0284 24.3068C35.3239 24.3068 36.4545 24.5284 37.4205 24.9716C38.392 25.4148 39.1477 26.0312 39.6875 26.821C40.2273 27.6108 40.5057 28.5256 40.5227 29.5653H36.9858ZM49.1413 42.2557C47.7947 42.2557 46.6357 41.983 45.6641 41.4375C44.6982 40.8864 43.9538 40.108 43.4311 39.1023C42.9084 38.0909 42.647 36.8949 42.647 35.5142C42.647 34.1676 42.9084 32.9858 43.4311 31.9688C43.9538 30.9517 44.6896 30.1591 45.6385 29.5909C46.593 29.0227 47.7124 28.7386 48.9964 28.7386C49.8601 28.7386 50.6641 28.8778 51.4084 29.1562C52.1584 29.429 52.8118 29.8409 53.3686 30.392C53.9311 30.9432 54.3686 31.6364 54.6811 32.4716C54.9936 33.3011 55.1499 34.2727 55.1499 35.3864V36.3835H44.0959V34.1335H51.7322C51.7322 33.6108 51.6186 33.1477 51.3913 32.7443C51.1641 32.3409 50.8487 32.0256 50.4453 31.7983C50.0476 31.5653 49.5845 31.4489 49.0561 31.4489C48.505 31.4489 48.0163 31.5767 47.5902 31.8324C47.1697 32.0824 46.8402 32.4205 46.6016 32.8466C46.3629 33.267 46.2408 33.7358 46.2351 34.2528V36.392C46.2351 37.0398 46.3544 37.5994 46.593 38.071C46.8374 38.5426 47.1811 38.9062 47.6243 39.1619C48.0675 39.4176 48.593 39.5455 49.201 39.5455C49.6044 39.5455 49.9737 39.4886 50.3089 39.375C50.6442 39.2614 50.9311 39.0909 51.1697 38.8636C51.4084 38.6364 51.5902 38.358 51.7152 38.0284L55.0732 38.25C54.9027 39.0568 54.5533 39.7614 54.0249 40.3636C53.5021 40.9602 52.826 41.4261 51.9964 41.7614C51.1726 42.0909 50.2209 42.2557 49.1413 42.2557ZM68.9886 42.2557C67.6477 42.2557 66.4943 41.9716 65.5284 41.4034C64.5682 40.8295 63.8295 40.0341 63.3125 39.017C62.8011 38 62.5455 36.8295 62.5455 35.5057C62.5455 34.1648 62.804 32.9886 63.321 31.9773C63.8438 30.9602 64.5852 30.1676 65.5455 29.5994C66.5057 29.0256 67.6477 28.7386 68.9716 28.7386C70.1136 28.7386 71.1136 28.946 71.9716 29.3608C72.8295 29.7756 73.5085 30.358 74.0085 31.108C74.5085 31.858 74.7841 32.7386 74.8352 33.75H71.4091C71.3125 33.0966 71.0568 32.571 70.642 32.1733C70.233 31.7699 69.696 31.5682 69.0312 31.5682C68.4688 31.5682 67.9773 31.7216 67.5568 32.0284C67.142 32.3295 66.8182 32.7699 66.5852 33.3494C66.3523 33.929 66.2358 34.6307 66.2358 35.4545C66.2358 36.2898 66.3494 37 66.5767 37.5852C66.8097 38.1705 67.1364 38.6165 67.5568 38.9233C67.9773 39.2301 68.4688 39.3835 69.0312 39.3835C69.446 39.3835 69.8182 39.2983 70.1477 39.1278C70.483 38.9574 70.7585 38.7102 70.9744 38.3864C71.196 38.0568 71.3409 37.6619 71.4091 37.2017H74.8352C74.7784 38.2017 74.5057 39.0824 74.017 39.8438C73.5341 40.5994 72.8665 41.1903 72.0142 41.6165C71.1619 42.0426 70.1534 42.2557 68.9886 42.2557ZM83.0746 42.2557C81.7507 42.2557 80.6058 41.9744 79.6399 41.4119C78.6797 40.8437 77.9382 40.054 77.4155 39.0426C76.8928 38.0256 76.6314 36.8466 76.6314 35.5057C76.6314 34.1534 76.8928 32.9716 77.4155 31.9602C77.9382 30.9432 78.6797 30.1534 79.6399 29.5909C80.6058 29.0227 81.7507 28.7386 83.0746 28.7386C84.3984 28.7386 85.5405 29.0227 86.5007 29.5909C87.4666 30.1534 88.2109 30.9432 88.7337 31.9602C89.2564 32.9716 89.5178 34.1534 89.5178 35.5057C89.5178 36.8466 89.2564 38.0256 88.7337 39.0426C88.2109 40.054 87.4666 40.8437 86.5007 41.4119C85.5405 41.9744 84.3984 42.2557 83.0746 42.2557ZM83.0916 39.4432C83.6939 39.4432 84.1967 39.2727 84.6001 38.9318C85.0036 38.5852 85.3075 38.1136 85.5121 37.517C85.7223 36.9205 85.8274 36.2415 85.8274 35.4801C85.8274 34.7188 85.7223 34.0398 85.5121 33.4432C85.3075 32.8466 85.0036 32.375 84.6001 32.0284C84.1967 31.6818 83.6939 31.5085 83.0916 31.5085C82.4837 31.5085 81.9723 31.6818 81.5575 32.0284C81.1484 32.375 80.8388 32.8466 80.6286 33.4432C80.424 34.0398 80.3217 34.7188 80.3217 35.4801C80.3217 36.2415 80.424 36.9205 80.6286 37.517C80.8388 38.1136 81.1484 38.5852 81.5575 38.9318C81.9723 39.2727 82.4837 39.4432 83.0916 39.4432ZM95.5092 34.4318V42H91.8786V28.9091H95.3388V31.2188H95.4922C95.782 30.4574 96.2678 29.8551 96.9496 29.4119C97.6314 28.9631 98.4581 28.7386 99.4297 28.7386C100.339 28.7386 101.131 28.9375 101.808 29.3352C102.484 29.733 103.009 30.3011 103.384 31.0398C103.759 31.7727 103.947 32.6477 103.947 33.6648V42H100.316V34.3125C100.322 33.5114 100.117 32.8864 99.7024 32.4375C99.2876 31.983 98.7166 31.7557 97.9893 31.7557C97.5007 31.7557 97.0689 31.8608 96.6939 32.071C96.3246 32.2812 96.0348 32.5881 95.8246 32.9915C95.62 33.3892 95.5149 33.8693 95.5092 34.4318ZM110.439 34.4318V42H106.808V28.9091H110.268V31.2188H110.422C110.712 30.4574 111.197 29.8551 111.879 29.4119C112.561 28.9631 113.388 28.7386 114.359 28.7386C115.268 28.7386 116.061 28.9375 116.737 29.3352C117.413 29.733 117.939 30.3011 118.314 31.0398C118.689 31.7727 118.876 32.6477 118.876 33.6648V42H115.246V34.3125C115.251 33.5114 115.047 32.8864 114.632 32.4375C114.217 31.983 113.646 31.7557 112.919 31.7557C112.43 31.7557 111.999 31.8608 111.624 32.071C111.254 32.2812 110.964 32.5881 110.754 32.9915C110.55 33.3892 110.445 33.8693 110.439 34.4318ZM127.704 42.2557C126.357 42.2557 125.198 41.983 124.227 41.4375C123.261 40.8864 122.516 40.108 121.994 39.1023C121.471 38.0909 121.21 36.8949 121.21 35.5142C121.21 34.1676 121.471 32.9858 121.994 31.9688C122.516 30.9517 123.252 30.1591 124.201 29.5909C125.156 29.0227 126.275 28.7386 127.559 28.7386C128.423 28.7386 129.227 28.8778 129.971 29.1562C130.721 29.429 131.374 29.8409 131.931 30.392C132.494 30.9432 132.931 31.6364 133.244 32.4716C133.556 33.3011 133.712 34.2727 133.712 35.3864V36.3835H122.658V34.1335H130.295C130.295 33.6108 130.181 33.1477 129.954 32.7443C129.727 32.3409 129.411 32.0256 129.008 31.7983C128.61 31.5653 128.147 31.4489 127.619 31.4489C127.067 31.4489 126.579 31.5767 126.153 31.8324C125.732 32.0824 125.403 32.4205 125.164 32.8466C124.925 33.267 124.803 33.7358 124.798 34.2528V36.392C124.798 37.0398 124.917 37.5994 125.156 38.071C125.4 38.5426 125.744 38.9062 126.187 39.1619C126.63 39.4176 127.156 39.5455 127.763 39.5455C128.167 39.5455 128.536 39.4886 128.871 39.375C129.207 39.2614 129.494 39.0909 129.732 38.8636C129.971 38.6364 130.153 38.358 130.278 38.0284L133.636 38.25C133.465 39.0568 133.116 39.7614 132.587 40.3636C132.065 40.9602 131.388 41.4261 130.559 41.7614C129.735 42.0909 128.783 42.2557 127.704 42.2557ZM141.996 42.2557C140.656 42.2557 139.502 41.9716 138.536 41.4034C137.576 40.8295 136.837 40.0341 136.32 39.017C135.809 38 135.553 36.8295 135.553 35.5057C135.553 34.1648 135.812 32.9886 136.329 31.9773C136.852 30.9602 137.593 30.1676 138.553 29.5994C139.513 29.0256 140.656 28.7386 141.979 28.7386C143.121 28.7386 144.121 28.946 144.979 29.3608C145.837 29.7756 146.516 30.358 147.016 31.108C147.516 31.858 147.792 32.7386 147.843 33.75H144.417C144.32 33.0966 144.065 32.571 143.65 32.1733C143.241 31.7699 142.704 31.5682 142.039 31.5682C141.477 31.5682 140.985 31.7216 140.565 32.0284C140.15 32.3295 139.826 32.7699 139.593 33.3494C139.36 33.929 139.244 34.6307 139.244 35.4545C139.244 36.2898 139.357 37 139.585 37.5852C139.817 38.1705 140.144 38.6165 140.565 38.9233C140.985 39.2301 141.477 39.3835 142.039 39.3835C142.454 39.3835 142.826 39.2983 143.156 39.1278C143.491 38.9574 143.766 38.7102 143.982 38.3864C144.204 38.0568 144.349 37.6619 144.417 37.2017H147.843C147.786 38.2017 147.513 39.0824 147.025 39.8438C146.542 40.5994 145.874 41.1903 145.022 41.6165C144.17 42.0426 143.161 42.2557 141.996 42.2557ZM157.131 28.9091V31.6364H149.247V28.9091H157.131ZM151.037 25.7727H154.668V37.9773C154.668 38.3125 154.719 38.5739 154.821 38.7614C154.923 38.9432 155.065 39.071 155.247 39.1449C155.435 39.2187 155.651 39.2557 155.895 39.2557C156.065 39.2557 156.236 39.2415 156.406 39.2131C156.577 39.179 156.707 39.1534 156.798 39.1364L157.369 41.8381C157.188 41.8949 156.932 41.9602 156.602 42.0341C156.273 42.1136 155.872 42.1619 155.401 42.179C154.526 42.2131 153.759 42.0966 153.099 41.8295C152.446 41.5625 151.938 41.1477 151.574 40.5852C151.21 40.0227 151.031 39.3125 151.037 38.4545V25.7727ZM165.321 42.2557C163.974 42.2557 162.815 41.983 161.844 41.4375C160.878 40.8864 160.134 40.108 159.611 39.1023C159.088 38.0909 158.827 36.8949 158.827 35.5142C158.827 34.1676 159.088 32.9858 159.611 31.9688C160.134 30.9517 160.869 30.1591 161.818 29.5909C162.773 29.0227 163.892 28.7386 165.176 28.7386C166.04 28.7386 166.844 28.8778 167.588 29.1562C168.338 29.429 168.991 29.8409 169.548 30.392C170.111 30.9432 170.548 31.6364 170.861 32.4716C171.173 33.3011 171.33 34.2727 171.33 35.3864V36.3835H160.276V34.1335H167.912C167.912 33.6108 167.798 33.1477 167.571 32.7443C167.344 32.3409 167.028 32.0256 166.625 31.7983C166.227 31.5653 165.764 31.4489 165.236 31.4489C164.685 31.4489 164.196 31.5767 163.77 31.8324C163.349 32.0824 163.02 32.4205 162.781 32.8466C162.543 33.267 162.42 33.7358 162.415 34.2528V36.392C162.415 37.0398 162.534 37.5994 162.773 38.071C163.017 38.5426 163.361 38.9062 163.804 39.1619C164.247 39.4176 164.773 39.5455 165.381 39.5455C165.784 39.5455 166.153 39.4886 166.489 39.375C166.824 39.2614 167.111 39.0909 167.349 38.8636C167.588 38.6364 167.77 38.358 167.895 38.0284L171.253 38.25C171.082 39.0568 170.733 39.7614 170.205 40.3636C169.682 40.9602 169.006 41.4261 168.176 41.7614C167.352 42.0909 166.401 42.2557 165.321 42.2557ZM173.699 42V28.9091H177.219V31.1932H177.355C177.594 30.3807 177.994 29.767 178.557 29.3523C179.119 28.9318 179.767 28.7216 180.5 28.7216C180.682 28.7216 180.878 28.733 181.088 28.7557C181.298 28.7784 181.483 28.8097 181.642 28.8494V32.071C181.472 32.0199 181.236 31.9744 180.935 31.9347C180.634 31.8949 180.358 31.875 180.108 31.875C179.574 31.875 179.097 31.9915 178.676 32.2244C178.261 32.4517 177.932 32.7699 177.688 33.179C177.449 33.5881 177.33 34.0597 177.33 34.5938V42H173.699Z" fill="white"/>
</g>
<defs>
<filter id="filter0_d_24_6" x="0" y="0" width="209" height="68" filterUnits="userSpaceOnUse" color-interpolation-filters="sRGB">
<feFlood flood-opacity="0" result="BackgroundImageFix"/>
<feColorMatrix in="SourceAlpha" type="matrix" values="0 0 0 0 0 0 0 0 0 0 0 0 0 0 0 0 0 0 127 0" result="hardAlpha"/>
<feOffset dy="1"/>
<feGaussianBlur stdDeviation="1"/>
<feComposite in2="hardAlpha" operator="out"/>
<feColorMatrix type="matrix" values="0 0 0 0 0 0 0 0 0 0 0 0 0 0 0 0 0 0 0.05 0"/>
<feBlend mode="normal" in2="BackgroundImageFix" result="effect1_dropShadow_24_6"/>
<feBlend mode="normal" in="SourceGraphic" in2="effect1_dropShadow_24_6" result="shape"/>
</filter>
</defs>
</svg>
