<svg width="124" height="92" viewBox="0 0 124 92" fill="none" xmlns="http://www.w3.org/2000/svg">
<g filter="url(#filter0_d_24_47)">
<rect x="2" y="1" width="120" height="88" rx="8" fill="#207FEE" shape-rendering="crispEdges"/>
<path d="M40.5114 51V39.3636H45.1023C45.9848 39.3636 46.7367 39.5322 47.358 39.8693C47.9792 40.2027 48.4527 40.6667 48.7784 41.2614C49.108 41.8523 49.2727 42.5341 49.2727 43.3068C49.2727 44.0795 49.1061 44.7614 48.7727 45.3523C48.4394 45.9432 47.9564 46.4034 47.3239 46.733C46.6951 47.0625 45.9337 47.2273 45.0398 47.2273H42.1136V45.2557H44.642C45.1155 45.2557 45.5057 45.1742 45.8125 45.0114C46.1231 44.8447 46.3542 44.6155 46.5057 44.3239C46.661 44.0284 46.7386 43.6894 46.7386 43.3068C46.7386 42.9205 46.661 42.5833 46.5057 42.2955C46.3542 42.0038 46.1231 41.7784 45.8125 41.6193C45.5019 41.4564 45.108 41.375 44.6307 41.375H42.9716V51H40.5114ZM53.0795 51.1648C52.5227 51.1648 52.0265 51.0682 51.5909 50.875C51.1553 50.678 50.8106 50.3883 50.5568 50.0057C50.3068 49.6193 50.1818 49.1383 50.1818 48.5625C50.1818 48.0777 50.2708 47.6705 50.4489 47.3409C50.6269 47.0114 50.8693 46.7462 51.1761 46.5455C51.483 46.3447 51.8314 46.1932 52.2216 46.0909C52.6155 45.9886 53.0284 45.9167 53.4602 45.875C53.9678 45.822 54.3769 45.7727 54.6875 45.7273C54.9981 45.678 55.2235 45.6061 55.3636 45.5114C55.5038 45.4167 55.5739 45.2765 55.5739 45.0909V45.0568C55.5739 44.697 55.4602 44.4186 55.233 44.2216C55.0095 44.0246 54.6913 43.9261 54.2784 43.9261C53.8428 43.9261 53.4962 44.0227 53.2386 44.2159C52.9811 44.4053 52.8106 44.6439 52.7273 44.9318L50.4886 44.75C50.6023 44.2197 50.8258 43.7614 51.1591 43.375C51.4924 42.9848 51.9223 42.6856 52.4489 42.4773C52.9792 42.2652 53.5928 42.1591 54.2898 42.1591C54.7746 42.1591 55.2386 42.2159 55.6818 42.3295C56.1288 42.4432 56.5246 42.6193 56.8693 42.858C57.2178 43.0966 57.4924 43.4034 57.6932 43.7784C57.8939 44.1496 57.9943 44.5947 57.9943 45.1136V51H55.6989V49.7898H55.6307C55.4905 50.0625 55.303 50.303 55.0682 50.5114C54.8333 50.7159 54.5511 50.8769 54.2216 50.9943C53.892 51.108 53.5114 51.1648 53.0795 51.1648ZM53.7727 49.4943C54.1288 49.4943 54.4432 49.4242 54.7159 49.2841C54.9886 49.1402 55.2027 48.947 55.358 48.7045C55.5133 48.4621 55.5909 48.1875 55.5909 47.8807V46.9545C55.5152 47.0038 55.411 47.0492 55.2784 47.0909C55.1496 47.1288 55.0038 47.1648 54.8409 47.1989C54.678 47.2292 54.5152 47.2576 54.3523 47.2841C54.1894 47.3068 54.0417 47.3277 53.9091 47.3466C53.625 47.3883 53.3769 47.4545 53.1648 47.5455C52.9527 47.6364 52.7879 47.7595 52.6705 47.9148C52.553 48.0663 52.4943 48.2557 52.4943 48.483C52.4943 48.8125 52.6136 49.0644 52.8523 49.2386C53.0947 49.4091 53.4015 49.4943 53.7727 49.4943ZM61.054 54.2727C60.7472 54.2727 60.4593 54.2481 60.1903 54.1989C59.9252 54.1534 59.7055 54.0947 59.5312 54.0227L60.0767 52.2159C60.3608 52.303 60.6165 52.3504 60.8438 52.358C61.0748 52.3655 61.2737 52.3125 61.4403 52.1989C61.6108 52.0852 61.7491 51.892 61.8551 51.6193L61.9972 51.25L58.8665 42.2727H61.4119L63.2188 48.6818H63.3097L65.1335 42.2727H67.696L64.304 51.9432C64.1411 52.4129 63.9195 52.822 63.6392 53.1705C63.3627 53.5227 63.0123 53.7936 62.5881 53.983C62.1638 54.1761 61.6525 54.2727 61.054 54.2727ZM72.6307 51.1705C71.733 51.1705 70.9602 50.9886 70.3125 50.625C69.6686 50.2576 69.1723 49.7386 68.8239 49.0682C68.4754 48.3939 68.3011 47.5966 68.3011 46.6761C68.3011 45.7784 68.4754 44.9905 68.8239 44.3125C69.1723 43.6345 69.6629 43.1061 70.2955 42.7273C70.9318 42.3485 71.678 42.1591 72.5341 42.1591C73.1098 42.1591 73.6458 42.2519 74.142 42.4375C74.642 42.6193 75.0777 42.8939 75.4489 43.2614C75.8239 43.6288 76.1155 44.0909 76.3239 44.6477C76.5322 45.2008 76.6364 45.8485 76.6364 46.5909V47.2557H69.267V45.7557H74.358C74.358 45.4072 74.2822 45.0985 74.1307 44.8295C73.9792 44.5606 73.7689 44.3504 73.5 44.1989C73.2348 44.0436 72.9261 43.9659 72.5739 43.9659C72.2064 43.9659 71.8807 44.0511 71.5966 44.2216C71.3163 44.3883 71.0966 44.6136 70.9375 44.8977C70.7784 45.178 70.697 45.4905 70.6932 45.8352V47.2614C70.6932 47.6932 70.7727 48.0663 70.9318 48.3807C71.0947 48.6951 71.3239 48.9375 71.6193 49.108C71.9148 49.2784 72.2652 49.3636 72.6705 49.3636C72.9394 49.3636 73.1856 49.3258 73.4091 49.25C73.6326 49.1742 73.8239 49.0606 73.983 48.9091C74.142 48.7576 74.2633 48.572 74.3466 48.3523L76.5852 48.5C76.4716 49.0379 76.2386 49.5076 75.8864 49.9091C75.5379 50.3068 75.0871 50.6174 74.5341 50.8409C73.9848 51.0606 73.3504 51.1705 72.6307 51.1705ZM78.2159 51V42.2727H80.5625V43.7955H80.6534C80.8125 43.2538 81.0795 42.8447 81.4545 42.5682C81.8295 42.2879 82.2614 42.1477 82.75 42.1477C82.8712 42.1477 83.0019 42.1553 83.142 42.1705C83.2822 42.1856 83.4053 42.2064 83.5114 42.233V44.3807C83.3977 44.3466 83.2405 44.3163 83.0398 44.2898C82.839 44.2633 82.6553 44.25 82.4886 44.25C82.1326 44.25 81.8144 44.3277 81.5341 44.483C81.2576 44.6345 81.0379 44.8466 80.875 45.1193C80.7159 45.392 80.6364 45.7064 80.6364 46.0625V51H78.2159Z" fill="white"/>
</g>
<defs>
<filter id="filter0_d_24_47" x="0" y="0" width="124" height="92" filterUnits="userSpaceOnUse" color-interpolation-filters="sRGB">
<feFlood flood-opacity="0" monetization="BackgroundImageFix"/>
<feColorMatrix in="SourceAlpha" type="matrix" values="0 0 0 0 0 0 0 0 0 0 0 0 0 0 0 0 0 0 127 0" monetization="hardAlpha"/>
<feOffset dy="1"/>
<feGaussianBlur stdDeviation="1"/>
<feComposite in2="hardAlpha" operator="out"/>
<feColorMatrix type="matrix" values="0 0 0 0 0 0 0 0 0 0 0 0 0 0 0 0 0 0 0.05 0"/>
<feBlend mode="normal" in2="BackgroundImageFix" monetization="effect1_dropShadow_24_47"/>
<feBlend mode="normal" in="SourceGraphic" in2="effect1_dropShadow_24_47" monetization="shape"/>
</filter>
</defs>
</svg>
