<svg width="189" height="121" viewBox="0 0 189 121" fill="none" xmlns="http://www.w3.org/2000/svg">
<rect x="0.5" y="0.5" width="188" height="120" rx="7.5" fill="white"/>
<rect x="0.5" y="0.5" width="188" height="120" rx="7.5" stroke="#E0E0E0"/>
<path d="M23.5 69.7386C22.2159 69.7386 21.1222 69.3892 20.2188 68.6903C19.3153 67.9858 18.625 66.9659 18.1477 65.6307C17.6705 64.2898 17.4318 62.6705 17.4318 60.7727C17.4318 58.8864 17.6705 57.2756 18.1477 55.9403C18.6307 54.5994 19.3239 53.5767 20.2273 52.8722C21.1364 52.1619 22.2273 51.8068 23.5 51.8068C24.7727 51.8068 25.8608 52.1619 26.7642 52.8722C27.6733 53.5767 28.3665 54.5994 28.8438 55.9403C29.3267 57.2756 29.5682 58.8864 29.5682 60.7727C29.5682 62.6705 29.3295 64.2898 28.8523 65.6307C28.375 66.9659 27.6847 67.9858 26.7812 68.6903C25.8778 69.3892 24.7841 69.7386 23.5 69.7386ZM23.5 67.8636C24.7727 67.8636 25.7614 67.25 26.4659 66.0227C27.1705 64.7955 27.5227 63.0455 27.5227 60.7727C27.5227 59.2614 27.3608 57.9744 27.0369 56.9119C26.7188 55.8494 26.2585 55.0398 25.6562 54.483C25.0597 53.9261 24.3409 53.6477 23.5 53.6477C22.2386 53.6477 21.2528 54.2699 20.5426 55.5142C19.8324 56.7528 19.4773 58.5057 19.4773 60.7727C19.4773 62.2841 19.6364 63.5682 19.9545 64.625C20.2727 65.6818 20.7301 66.4858 21.3267 67.0369C21.929 67.5881 22.6534 67.8636 23.5 67.8636ZM43.5114 58.2159L42.7273 59.9205H31.6136L32.2273 58.2159H43.5114ZM42.0455 61.625L41.2614 63.3295H31.6136L32.2273 61.625H42.0455ZM45.5227 53.6136L44.7045 55.3864C44.3409 55.0568 43.9574 54.7727 43.554 54.5341C43.1506 54.2955 42.7273 54.1108 42.2841 53.9801C41.8409 53.8494 41.375 53.7841 40.8864 53.7841C39.9205 53.7841 39.0511 54.0511 38.2784 54.5852C37.5057 55.1193 36.8949 55.9062 36.446 56.946C35.9972 57.9858 35.7727 59.2614 35.7727 60.7727C35.7727 62.2841 35.9972 63.5597 36.446 64.5994C36.8949 65.6392 37.5057 66.4261 38.2784 66.9602C39.0511 67.4943 39.9205 67.7614 40.8864 67.7614C41.3864 67.7614 41.858 67.696 42.3011 67.5653C42.75 67.4347 43.1676 67.2557 43.554 67.0284C43.946 66.8011 44.3068 66.5455 44.6364 66.2614L45.4886 68.0341C44.892 68.5966 44.1932 69.0227 43.392 69.3125C42.5909 69.5966 41.7557 69.7386 40.8864 69.7386C39.4886 69.7386 38.25 69.375 37.1705 68.6477C36.0966 67.9205 35.2528 66.8864 34.6392 65.5455C34.0313 64.2045 33.7273 62.6136 33.7273 60.7727C33.7273 58.9318 34.0313 57.3409 34.6392 56C35.2528 54.6591 36.0966 53.625 37.1705 52.8977C38.25 52.1705 39.4886 51.8068 40.8864 51.8068C41.7898 51.8068 42.6335 51.9631 43.4176 52.2756C44.2074 52.5881 44.9091 53.0341 45.5227 53.6136Z" fill="black"/>
<path d="M165 39L159 33L153 39" stroke="#828282" stroke-width="2" stroke-linecap="round" stroke-linejoin="round"/>
<path d="M153 81L159 87L165 81" stroke="#828282" stroke-width="2" stroke-linecap="round" stroke-linejoin="round"/>
</svg>
