<svg width="156" height="66" viewBox="0 0 156 66" fill="none" xmlns="http://www.w3.org/2000/svg">
<g filter="url(#filter0_d_38_95)">
<rect x="2.5" y="1" width="151" height="62" rx="8" fill="#F69F1D" shape-rendering="crispEdges"/>
<path d="M39.392 41H36.5966L42.8778 23.5455H45.9205L52.2017 41H49.4062L44.4716 26.7159H44.3352L39.392 41ZM39.8608 34.1648H48.929V36.3807H39.8608V34.1648ZM54.5178 27.9091H57.0661V41.8523C57.0661 42.7273 56.907 43.4659 56.5888 44.0682C56.2763 44.6705 55.8104 45.1278 55.1911 45.4403C54.5774 45.7528 53.8189 45.9091 52.9155 45.9091C52.8246 45.9091 52.7393 45.9091 52.6598 45.9091C52.5746 45.9091 52.4865 45.9063 52.3956 45.9006V43.7102C52.4751 43.7102 52.5462 43.7102 52.6087 43.7102C52.6655 43.7102 52.7308 43.7102 52.8047 43.7102C53.407 43.7102 53.8416 43.5483 54.1087 43.2244C54.3814 42.9063 54.5178 42.4432 54.5178 41.8352V27.9091ZM55.7791 25.8892C55.3359 25.8892 54.9553 25.7415 54.6371 25.446C54.3246 25.1449 54.1683 24.7869 54.1683 24.3722C54.1683 23.9517 54.3246 23.5937 54.6371 23.2983C54.9553 22.9972 55.3359 22.8466 55.7791 22.8466C56.2223 22.8466 56.6001 22.9972 56.9126 23.2983C57.2308 23.5937 57.3899 23.9517 57.3899 24.3722C57.3899 24.7869 57.2308 25.1449 56.9126 25.446C56.6001 25.7415 56.2223 25.8892 55.7791 25.8892ZM66.0085 41.2642C64.7813 41.2642 63.7102 40.983 62.7955 40.4205C61.8807 39.858 61.1705 39.071 60.6648 38.0597C60.1591 37.0483 59.9062 35.8665 59.9062 34.5142C59.9062 33.1562 60.1591 31.9687 60.6648 30.9517C61.1705 29.9347 61.8807 29.1449 62.7955 28.5824C63.7102 28.0199 64.7813 27.7386 66.0085 27.7386C67.2358 27.7386 68.3068 28.0199 69.2216 28.5824C70.1364 29.1449 70.8466 29.9347 71.3523 30.9517C71.858 31.9687 72.1108 33.1562 72.1108 34.5142C72.1108 35.8665 71.858 37.0483 71.3523 38.0597C70.8466 39.071 70.1364 39.858 69.2216 40.4205C68.3068 40.983 67.2358 41.2642 66.0085 41.2642ZM66.017 39.125C66.8125 39.125 67.4716 38.9148 67.9943 38.4943C68.517 38.0739 68.9034 37.5142 69.1534 36.8153C69.4091 36.1165 69.5369 35.3466 69.5369 34.5057C69.5369 33.6705 69.4091 32.9034 69.1534 32.2045C68.9034 31.5 68.517 30.9347 67.9943 30.5085C67.4716 30.0824 66.8125 29.8693 66.017 29.8693C65.2159 29.8693 64.5511 30.0824 64.0227 30.5085C63.5 30.9347 63.1108 31.5 62.8551 32.2045C62.6051 32.9034 62.4801 33.6705 62.4801 34.5057C62.4801 35.3466 62.6051 36.1165 62.8551 36.8153C63.1108 37.5142 63.5 38.0739 64.0227 38.4943C64.5511 38.9148 65.2159 39.125 66.017 39.125ZM83.2479 35.571V27.9091H85.8047V41H83.299V38.733H83.1626C82.8615 39.4318 82.3786 40.0142 81.7138 40.4801C81.0547 40.9403 80.2337 41.1705 79.2507 41.1705C78.4098 41.1705 77.6655 40.9858 77.0178 40.6165C76.3757 40.2415 75.87 39.6875 75.5007 38.9545C75.1371 38.2216 74.9553 37.3153 74.9553 36.2358V27.9091H77.5036V35.929C77.5036 36.821 77.7507 37.5312 78.245 38.0597C78.7393 38.5881 79.3814 38.8523 80.1712 38.8523C80.6484 38.8523 81.1229 38.733 81.5945 38.4943C82.0717 38.2557 82.4666 37.8949 82.7791 37.4119C83.0973 36.929 83.2536 36.3153 83.2479 35.571ZM95.3395 27.9091V29.9545H88.1889V27.9091H95.3395ZM90.1065 24.7727H92.6548V37.1562C92.6548 37.6506 92.7287 38.0227 92.8764 38.2727C93.0241 38.517 93.2145 38.6847 93.4474 38.7756C93.6861 38.8608 93.9446 38.9034 94.223 38.9034C94.4276 38.9034 94.6065 38.8892 94.7599 38.8608C94.9134 38.8324 95.0327 38.8097 95.1179 38.7926L95.5781 40.8977C95.4304 40.9545 95.2202 41.0114 94.9474 41.0682C94.6747 41.1307 94.3338 41.1648 93.9247 41.1705C93.2543 41.1818 92.6293 41.0625 92.0497 40.8125C91.4702 40.5625 91.0014 40.1761 90.6435 39.6534C90.2855 39.1307 90.1065 38.4744 90.1065 37.6847V24.7727ZM103.66 41.2642C102.37 41.2642 101.259 40.9886 100.327 40.4375C99.4013 39.8807 98.6854 39.0994 98.1797 38.0938C97.6797 37.0824 97.4297 35.8977 97.4297 34.5398C97.4297 33.1989 97.6797 32.017 98.1797 30.9943C98.6854 29.9716 99.3899 29.1733 100.293 28.5994C101.202 28.0256 102.265 27.7386 103.481 27.7386C104.219 27.7386 104.935 27.8608 105.629 28.1051C106.322 28.3494 106.944 28.733 107.495 29.2557C108.046 29.7784 108.481 30.4574 108.799 31.2926C109.117 32.1222 109.276 33.1307 109.276 34.3182V35.2216H98.87V33.3125H106.779C106.779 32.642 106.643 32.0483 106.37 31.5312C106.097 31.0085 105.714 30.5966 105.219 30.2955C104.731 29.9943 104.157 29.8438 103.498 29.8438C102.782 29.8438 102.157 30.0199 101.623 30.3722C101.094 30.7187 100.685 31.1733 100.396 31.7358C100.112 32.2926 99.9695 32.8977 99.9695 33.5511V35.0426C99.9695 35.9176 100.123 36.6619 100.43 37.2756C100.742 37.8892 101.177 38.358 101.734 38.6818C102.29 39 102.941 39.1591 103.685 39.1591C104.168 39.1591 104.609 39.0909 105.006 38.9545C105.404 38.8125 105.748 38.6023 106.038 38.3239C106.327 38.0455 106.549 37.7017 106.702 37.2926L109.114 37.7273C108.921 38.4375 108.575 39.0597 108.075 39.5938C107.58 40.1222 106.958 40.5341 106.208 40.8295C105.464 41.1193 104.614 41.2642 103.66 41.2642ZM112.104 41V27.9091H114.567V29.9886H114.703C114.942 29.2841 115.362 28.7301 115.964 28.3267C116.572 27.9176 117.26 27.7131 118.027 27.7131C118.186 27.7131 118.374 27.7187 118.589 27.7301C118.811 27.7415 118.984 27.7557 119.109 27.7727V30.2102C119.007 30.1818 118.825 30.1506 118.564 30.1165C118.303 30.0767 118.041 30.0568 117.78 30.0568C117.178 30.0568 116.641 30.1847 116.169 30.4403C115.703 30.6903 115.334 31.0398 115.061 31.4886C114.788 31.9318 114.652 32.4375 114.652 33.0057V41H112.104Z" fill="white"/>
</g>
<defs>
<filter id="filter0_d_38_95" x="0.5" y="0" width="155" height="66" filterUnits="userSpaceOnUse" color-interpolation-filters="sRGB">
<feFlood flood-opacity="0" result="BackgroundImageFix"/>
<feColorMatrix in="SourceAlpha" type="matrix" values="0 0 0 0 0 0 0 0 0 0 0 0 0 0 0 0 0 0 127 0" result="hardAlpha"/>
<feOffset dy="1"/>
<feGaussianBlur stdDeviation="1"/>
<feComposite in2="hardAlpha" operator="out"/>
<feColorMatrix type="matrix" values="0 0 0 0 0 0 0 0 0 0 0 0 0 0 0 0 0 0 0.05 0"/>
<feBlend mode="normal" in2="BackgroundImageFix" result="effect1_dropShadow_38_95"/>
<feBlend mode="normal" in="SourceGraphic" in2="effect1_dropShadow_38_95" result="shape"/>
</filter>
</defs>
</svg>
