<svg width="151" height="68" viewBox="0 0 151 68" fill="none" xmlns="http://www.w3.org/2000/svg">
<g filter="url(#filter0_d_55_17)">
<rect x="2" y="1" width="147" height="64" rx="8" fill="#F69F1D" shape-rendering="crispEdges"/>
<path d="M27.517 24.5455H32.0682L36.875 36.2727H37.0795L41.8864 24.5455H46.4375V42H42.858V30.6392H42.7131L38.196 41.9148H35.7585L31.2415 30.5966H31.0966V42H27.517V24.5455ZM55.3246 42.2557C54.0007 42.2557 52.8558 41.9744 51.8899 41.4119C50.9297 40.8437 50.1882 40.054 49.6655 39.0426C49.1428 38.0256 48.8814 36.8466 48.8814 35.5057C48.8814 34.1534 49.1428 32.9716 49.6655 31.9602C50.1882 30.9432 50.9297 30.1534 51.8899 29.5909C52.8558 29.0227 54.0007 28.7386 55.3246 28.7386C56.6484 28.7386 57.7905 29.0227 58.7507 29.5909C59.7166 30.1534 60.4609 30.9432 60.9837 31.9602C61.5064 32.9716 61.7678 34.1534 61.7678 35.5057C61.7678 36.8466 61.5064 38.0256 60.9837 39.0426C60.4609 40.054 59.7166 40.8437 58.7507 41.4119C57.7905 41.9744 56.6484 42.2557 55.3246 42.2557ZM55.3416 39.4432C55.9439 39.4432 56.4467 39.2727 56.8501 38.9318C57.2536 38.5852 57.5575 38.1136 57.7621 37.517C57.9723 36.9205 58.0774 36.2415 58.0774 35.4801C58.0774 34.7188 57.9723 34.0398 57.7621 33.4432C57.5575 32.8466 57.2536 32.375 56.8501 32.0284C56.4467 31.6818 55.9439 31.5085 55.3416 31.5085C54.7337 31.5085 54.2223 31.6818 53.8075 32.0284C53.3984 32.375 53.0888 32.8466 52.8786 33.4432C52.674 34.0398 52.5717 34.7188 52.5717 35.4801C52.5717 36.2415 52.674 36.9205 52.8786 37.517C53.0888 38.1136 53.3984 38.5852 53.8075 38.9318C54.2223 39.2727 54.7337 39.4432 55.3416 39.4432ZM68.9524 42.2131C67.9581 42.2131 67.0575 41.9574 66.2507 41.446C65.4496 40.929 64.8132 40.1705 64.3416 39.1705C63.8757 38.1648 63.6428 36.9318 63.6428 35.4716C63.6428 33.9716 63.8842 32.7244 64.3672 31.7301C64.8501 30.7301 65.4922 29.983 66.2933 29.4886C67.1001 28.9886 67.9837 28.7386 68.9439 28.7386C69.6768 28.7386 70.2876 28.8636 70.7763 29.1136C71.2706 29.358 71.6683 29.6648 71.9695 30.0341C72.2763 30.3977 72.5092 30.7557 72.6683 31.108H72.7791V24.5455H76.4013V42H72.8217V39.9034H72.6683C72.4979 40.267 72.2564 40.6278 71.9439 40.9858C71.6371 41.3381 71.2365 41.6307 70.7422 41.8636C70.2536 42.0966 69.657 42.2131 68.9524 42.2131ZM70.103 39.3239C70.6882 39.3239 71.1825 39.1648 71.5859 38.8466C71.995 38.5227 72.3075 38.071 72.5234 37.4915C72.745 36.9119 72.8558 36.233 72.8558 35.4545C72.8558 34.6761 72.7479 34 72.532 33.4261C72.3161 32.8523 72.0036 32.4091 71.5945 32.0966C71.1854 31.7841 70.6882 31.6278 70.103 31.6278C69.5064 31.6278 69.0036 31.7898 68.5945 32.1136C68.1854 32.4375 67.8757 32.8864 67.6655 33.4602C67.4553 34.0341 67.3501 34.6989 67.3501 35.4545C67.3501 36.2159 67.4553 36.8892 67.6655 37.4744C67.8814 38.054 68.1911 38.5085 68.5945 38.8381C69.0036 39.1619 69.5064 39.3239 70.103 39.3239ZM79.3864 42V28.9091H83.017V42H79.3864ZM81.2102 27.2216C80.6705 27.2216 80.2074 27.0426 79.821 26.6847C79.4403 26.321 79.25 25.8864 79.25 25.3807C79.25 24.8807 79.4403 24.4517 79.821 24.0938C80.2074 23.7301 80.6705 23.5483 81.2102 23.5483C81.75 23.5483 82.2102 23.7301 82.5909 24.0938C82.9773 24.4517 83.1705 24.8807 83.1705 25.3807C83.1705 25.8864 82.9773 26.321 82.5909 26.6847C82.2102 27.0426 81.75 27.2216 81.2102 27.2216ZM92.9652 28.9091V31.6364H84.8857V28.9091H92.9652ZM86.7351 42V27.9631C86.7351 27.0142 86.9197 26.2273 87.2891 25.6023C87.6641 24.9773 88.1754 24.5085 88.8232 24.196C89.4709 23.8835 90.2067 23.7273 91.0305 23.7273C91.5874 23.7273 92.0959 23.7699 92.5561 23.8551C93.022 23.9403 93.3686 24.017 93.5959 24.0852L92.9482 26.8125C92.8061 26.767 92.63 26.7244 92.4197 26.6847C92.2152 26.6449 92.005 26.625 91.7891 26.625C91.255 26.625 90.8828 26.75 90.6726 27C90.4624 27.2443 90.3572 27.5881 90.3572 28.0312V42H86.7351ZM95.1832 42V28.9091H98.8139V42H95.1832ZM97.0071 27.2216C96.4673 27.2216 96.0043 27.0426 95.6179 26.6847C95.2372 26.321 95.0469 25.8864 95.0469 25.3807C95.0469 24.8807 95.2372 24.4517 95.6179 24.0938C96.0043 23.7301 96.4673 23.5483 97.0071 23.5483C97.5469 23.5483 98.0071 23.7301 98.3878 24.0938C98.7741 24.4517 98.9673 24.8807 98.9673 25.3807C98.9673 25.8864 98.7741 26.321 98.3878 26.6847C98.0071 27.0426 97.5469 27.2216 97.0071 27.2216ZM107.688 42.2557C106.342 42.2557 105.183 41.983 104.211 41.4375C103.245 40.8864 102.501 40.108 101.978 39.1023C101.455 38.0909 101.194 36.8949 101.194 35.5142C101.194 34.1676 101.455 32.9858 101.978 31.9688C102.501 30.9517 103.237 30.1591 104.185 29.5909C105.14 29.0227 106.259 28.7386 107.543 28.7386C108.407 28.7386 109.211 28.8778 109.955 29.1562C110.705 29.429 111.359 29.8409 111.915 30.392C112.478 30.9432 112.915 31.6364 113.228 32.4716C113.54 33.3011 113.697 34.2727 113.697 35.3864V36.3835H102.643V34.1335H110.279C110.279 33.6108 110.165 33.1477 109.938 32.7443C109.711 32.3409 109.396 32.0256 108.992 31.7983C108.594 31.5653 108.131 31.4489 107.603 31.4489C107.052 31.4489 106.563 31.5767 106.137 31.8324C105.717 32.0824 105.387 32.4205 105.148 32.8466C104.91 33.267 104.788 33.7358 104.782 34.2528V36.392C104.782 37.0398 104.901 37.5994 105.14 38.071C105.384 38.5426 105.728 38.9062 106.171 39.1619C106.614 39.4176 107.14 39.5455 107.748 39.5455C108.151 39.5455 108.521 39.4886 108.856 39.375C109.191 39.2614 109.478 39.0909 109.717 38.8636C109.955 38.6364 110.137 38.358 110.262 38.0284L113.62 38.25C113.45 39.0568 113.1 39.7614 112.572 40.3636C112.049 40.9602 111.373 41.4261 110.543 41.7614C109.719 42.0909 108.768 42.2557 107.688 42.2557ZM116.066 42V28.9091H119.586V31.1932H119.722C119.961 30.3807 120.362 29.767 120.924 29.3523C121.487 28.9318 122.134 28.7216 122.867 28.7216C123.049 28.7216 123.245 28.733 123.455 28.7557C123.665 28.7784 123.85 28.8097 124.009 28.8494V32.071C123.839 32.0199 123.603 31.9744 123.302 31.9347C123.001 31.8949 122.725 31.875 122.475 31.875C121.941 31.875 121.464 31.9915 121.043 32.2244C120.629 32.4517 120.299 32.7699 120.055 33.179C119.816 33.5881 119.697 34.0597 119.697 34.5938V42H116.066Z" fill="white"/>
</g>
<defs>
<filter id="filter0_d_55_17" x="0" y="0" width="151" height="68" filterUnits="userSpaceOnUse" color-interpolation-filters="sRGB">
<feFlood flood-opacity="0" result="BackgroundImageFix"/>
<feColorMatrix in="SourceAlpha" type="matrix" values="0 0 0 0 0 0 0 0 0 0 0 0 0 0 0 0 0 0 127 0" result="hardAlpha"/>
<feOffset dy="1"/>
<feGaussianBlur stdDeviation="1"/>
<feComposite in2="hardAlpha" operator="out"/>
<feColorMatrix type="matrix" values="0 0 0 0 0 0 0 0 0 0 0 0 0 0 0 0 0 0 0.05 0"/>
<feBlend mode="normal" in2="BackgroundImageFix" result="effect1_dropShadow_55_17"/>
<feBlend mode="normal" in="SourceGraphic" in2="effect1_dropShadow_55_17" result="shape"/>
</filter>
</defs>
</svg>
